<svg width="51" height="60" viewBox="0 0 51 60" fill="none" xmlns="http://www.w3.org/2000/svg">
    <rect x="15" y="24" width="35" height="23" rx="5" fill="#F8991D"/>
    <rect x="12" y="13" width="17" height="10" rx="5" fill="#0662BA"/>
    <path d="M38.4 0H12C8.8174 0 5.76515 1.26428 3.51472 3.51472C1.26428 5.76515 0 8.8174 0 12V57.6C0 58.2365 0.252857 58.847 0.702944 59.2971C1.15303 59.7471 1.76348 60 2.4 60H9.6C10.136 59.9996 10.6564 59.8198 11.0783 59.4892C11.5002 59.1586 11.7994 58.6963 11.928 58.176L13.872 50.4H36.528L38.472 58.176C38.6006 58.6963 38.8998 59.1586 39.3217 59.4892C39.7436 59.8198 40.264 59.9996 40.8 60H48C48.6365 60 49.247 59.7471 49.6971 59.2971C50.1471 58.847 50.4 58.2365 50.4 57.6V12C50.4 8.8174 49.1357 5.76515 46.8853 3.51472C44.6348 1.26428 41.5826 0 38.4 0ZM7.728 55.2H4.8V50.4H8.928L7.728 55.2ZM45.6 55.2H42.672L41.472 50.4H45.6V55.2ZM45.6 45.6H4.8V40.8H45.6V45.6ZM45.6 36H4.8V33.6C4.8057 31.6922 5.5661 29.8642 6.91512 28.5151C8.26415 27.1661 10.0922 26.4057 12 26.4H38.4C40.3078 26.4057 42.1358 27.1661 43.4849 28.5151C44.8339 29.8642 45.5943 31.6922 45.6 33.6V36ZM14.4 18C14.4 17.0452 14.7793 16.1295 15.4544 15.4544C16.1295 14.7793 17.0452 14.4 18 14.4H32.4C33.3548 14.4 34.2705 14.7793 34.9456 15.4544C35.6207 16.1295 36 17.0452 36 18C36 18.9548 35.6207 19.8705 34.9456 20.5456C34.2705 21.2207 33.3548 21.6 32.4 21.6H18C17.0452 21.6 16.1295 21.2207 15.4544 20.5456C14.7793 19.8705 14.4 18.9548 14.4 18ZM45.6 24.072C43.9358 22.8038 41.9646 22.0004 39.888 21.744C40.4735 20.5818 40.7854 19.3012 40.8 18C40.8 15.7722 39.915 13.6356 38.3397 12.0603C36.7644 10.485 34.6278 9.6 32.4 9.6H18C15.7722 9.6 13.6356 10.485 12.0603 12.0603C10.485 13.6356 9.6 15.7722 9.6 18C9.61459 19.3012 9.92654 20.5818 10.512 21.744C8.43543 22.0004 6.46422 22.8038 4.8 24.072V12C4.8057 10.0922 5.5661 8.26415 6.91512 6.91512C8.26415 5.5661 10.0922 4.8057 12 4.8H38.4C40.3078 4.8057 42.1358 5.5661 43.4849 6.91512C44.8339 8.26415 45.5943 10.0922 45.6 12V24.072Z"
          fill="#200E32"/>
</svg>
