<svg width="40" height="70" viewBox="0 0 40 70" fill="none" xmlns="http://www.w3.org/2000/svg">
    <rect x="15" y="23" width="24" height="40" rx="5" fill="#F8991D"/>
    <rect x="8" width="24" height="10" rx="5" fill="#0662BA"/>
    <path fill-rule="evenodd" clip-rule="evenodd"
          d="M38.7343 45.2968C38.3241 45.707 37.7677 45.9375 37.1875 45.9375C36.6073 45.9375 36.0509 45.707 35.6407 45.2968C35.2305 44.8866 35 44.3302 35 43.75V28.4375C35 27.8573 34.7695 27.3009 34.3593 26.8907C33.9491 26.4805 33.3927 26.25 32.8125 26.25H6.5625C5.98234 26.25 5.42594 26.4805 5.0157 26.8907C4.60547 27.3009 4.375 27.8573 4.375 28.4375V59.0625C4.375 59.6427 4.60547 60.1991 5.0157 60.6093C5.42594 61.0195 5.98234 61.25 6.5625 61.25H32.8125C33.3927 61.25 33.9491 61.0195 34.3593 60.6093C34.7695 60.1991 35 59.6427 35 59.0625V52.5C35 51.9198 35.2305 51.3634 35.6407 50.9532C36.0509 50.543 36.6073 50.3125 37.1875 50.3125C37.7677 50.3125 38.3241 50.543 38.7343 50.9532C39.1445 51.3634 39.375 51.9198 39.375 52.5V59.0625C39.375 60.803 38.6836 62.4722 37.4529 63.7029C36.2222 64.9336 34.553 65.625 32.8125 65.625V67.8125C32.8125 68.3927 32.582 68.9491 32.1718 69.3593C31.7616 69.7695 31.2052 70 30.625 70C30.0448 70 29.4884 69.7695 29.0782 69.3593C28.668 68.9491 28.4375 68.3927 28.4375 67.8125V65.625H10.9375V67.8125C10.9375 68.3927 10.707 68.9491 10.2968 69.3593C9.88656 69.7695 9.33016 70 8.75 70C8.16984 70 7.61344 69.7695 7.2032 69.3593C6.79297 68.9491 6.5625 68.3927 6.5625 67.8125V65.625C4.82202 65.625 3.15282 64.9336 1.92211 63.7029C0.691404 62.4722 0 60.803 0 59.0625V28.4375C0 26.697 0.691404 25.0278 1.92211 23.7971C3.15282 22.5664 4.82202 21.875 6.5625 21.875V6.5625C6.5625 4.82202 7.2539 3.15282 8.48461 1.92211C9.71532 0.691404 11.3845 0 13.125 0H26.25C27.9905 0 29.6597 0.691404 30.8904 1.92211C32.1211 3.15282 32.8125 4.82202 32.8125 6.5625V21.875C34.553 21.875 36.2222 22.5664 37.4529 23.7971C38.6836 25.0278 39.375 26.697 39.375 28.4375V43.75C39.375 44.3302 39.1445 44.8866 38.7343 45.2968ZM10.9375 21.875H28.4375V13.125H10.9375V21.875ZM10.9375 8.75H28.4375V6.5625C28.4375 5.98234 28.207 5.42594 27.7968 5.0157C27.3866 4.60547 26.8302 4.375 26.25 4.375H13.125C12.5448 4.375 11.9884 4.60547 11.5782 5.0157C11.168 5.42594 10.9375 5.98234 10.9375 6.5625V8.75ZM9.39058 56.2343C9.80082 56.6446 10.3572 56.875 10.9374 56.875C11.5175 56.875 12.0739 56.6446 12.4842 56.2343C12.8944 55.8241 13.1249 55.2677 13.1249 54.6875V32.8125C13.1249 32.2324 12.8944 31.676 12.4842 31.2657C12.0739 30.8555 11.5175 30.625 10.9374 30.625C10.3572 30.625 9.80082 30.8555 9.39058 31.2657C8.98035 31.676 8.74988 32.2324 8.74988 32.8125V54.6875C8.74988 55.2677 8.98035 55.8241 9.39058 56.2343ZM18.1406 56.2343C18.5508 56.6446 19.1072 56.875 19.6874 56.875C20.2675 56.875 20.8239 56.6446 21.2342 56.2343C21.6444 55.8241 21.8749 55.2677 21.8749 54.6875V32.8125C21.8749 32.2324 21.6444 31.676 21.2342 31.2657C20.8239 30.8555 20.2675 30.625 19.6874 30.625C19.1072 30.625 18.5508 30.8555 18.1406 31.2657C17.7303 31.676 17.4999 32.2324 17.4999 32.8125V54.6875C17.4999 55.2677 17.7303 55.8241 18.1406 56.2343ZM26.8906 56.2343C27.3008 56.6446 27.8572 56.875 28.4374 56.875C29.0175 56.875 29.5739 56.6446 29.9842 56.2343C30.3944 55.8241 30.6249 55.2677 30.6249 54.6875V32.8125C30.6249 32.2324 30.3944 31.676 29.9842 31.2657C29.5739 30.8555 29.0175 30.625 28.4374 30.625C27.8572 30.625 27.3008 30.8555 26.8906 31.2657C26.4803 31.676 26.2499 32.2324 26.2499 32.8125V54.6875C26.2499 55.2677 26.4803 55.8241 26.8906 56.2343Z"
          fill="#200E32"/>
</svg>
