<svg width="53" height="80" viewBox="0 0 53 80" fill="none" xmlns="http://www.w3.org/2000/svg">
    <path d="M26.606 41.1473C26.542 39.8532 27.2805 38.6531 28.4645 38.1268C29.9121 37.4834 31.6122 38.0207 32.4272 39.379L47.9877 65.3132C49.8445 68.4078 47.8279 72.3793 44.2337 72.706C42.2738 72.8842 40.3978 71.8713 39.4717 70.1348L38.1513 67.659C37.4248 66.2969 36.1099 65.3467 34.5885 65.0845L31.678 64.5831C29.3711 64.1856 27.6487 62.2407 27.5331 59.9025L26.606 41.1473Z"
          fill="#F8991D"/>
    <path d="M22.5 10.5083C22.5 8.33908 24.335 6.62233 26.4994 6.76663C28.4693 6.89795 30 8.53408 30 10.5083V16.2867C30 16.758 29.9111 17.2251 29.7381 17.6635C28.2186 21.513 22.5 20.4252 22.5 16.2867V10.5083Z"
          fill="#0662BA"/>
    <path d="M2 72L14.1739 53.7391L20.2609 38.5217L24.5583 14.1739M50.6957 72L38.5217 53.7391L32.4348 38.5217L28.1678 14.3443M26.3478 8.08696V2M14.1739 38.5217H38.5217M8.08696 53.7391H44.6087M12.6522 72L15.6957 65.913L26.3478 61.3478L37 65.913L40.0435 72M23.3043 47.6522L26.3478 44.6087L29.3913 47.6522M21.7826 8.08696H30.913L29.3913 14.1739H23.3043L21.7826 8.08696Z"
          stroke="#200E32" stroke-width="4" stroke-miterlimit="10" stroke-linecap="round" stroke-linejoin="round"/>
</svg>
