<svg width="71" height="70" viewBox="0 0 71 70" fill="none" xmlns="http://www.w3.org/2000/svg">
    <path d="M20.0718 50.3512C18.33 48.451 18.3182 45.5382 20.0444 43.624L33.2379 28.9942C35.1142 26.9136 38.3335 26.7806 40.3751 28.6991L49.7729 37.5306C51.7852 39.4217 51.8835 42.586 49.9925 44.5983L31.1759 64.6215C29.2882 66.6302 26.131 66.7323 24.1175 64.8498L22.2945 63.1453C20.8917 61.8338 20.3641 59.8347 20.9369 58.0017L21.6412 55.7478C22.1728 54.0468 21.7588 52.1915 20.5546 50.8778L20.0718 50.3512Z"
          fill="#F8991D"/>
    <path d="M41.554 4.23386C43.0925 2.77808 45.5218 2.85187 46.9691 4.39834C47.6315 5.10618 48.0001 6.03939 48.0001 7.00886L48.0001 14.1483C48.0001 15.0335 48.2352 15.9029 48.6812 16.6676L49.5914 18.2279C50.7202 20.163 50.4241 22.6127 48.8667 24.2231L45.3797 27.8288C43.3996 29.8764 40.1114 29.8585 38.1537 27.7895L31.4366 20.6906C29.5387 18.6848 29.6261 15.5202 31.6319 13.6222L41.554 4.23386Z"
          fill="#0662BA"/>
    <path fill-rule="evenodd" clip-rule="evenodd"
          d="M6.48733 51.1405L0.642292 45.2965C0.438711 45.0937 0.277177 44.8527 0.166957 44.5873C0.0567372 44.3219 0 44.0373 0 43.7499C0 43.4626 0.0567372 43.178 0.166957 42.9126C0.277177 42.6472 0.438711 42.4062 0.642292 42.2034L42.2051 0.640597C42.6153 0.230501 43.1716 0.00012207 43.7516 0.00012207C44.3317 0.00012207 44.888 0.230501 45.2982 0.640597L51.1433 6.48454C51.5534 6.89476 51.7837 7.45106 51.7837 8.03111C51.7837 8.61117 51.5534 9.16747 51.1433 9.57769C49.904 10.818 49.2204 12.4652 49.2204 14.2185C49.2204 17.8377 52.1637 20.781 55.783 20.781C56.645 20.7835 57.4989 20.6149 58.2954 20.285C59.0918 19.9551 59.8148 19.4705 60.4227 18.8593C60.8329 18.4492 61.3892 18.2188 61.9693 18.2188C62.5493 18.2188 63.1056 18.4492 63.5158 18.8593L69.3609 24.7033C69.5645 24.9061 69.726 25.1471 69.8362 25.4125C69.9464 25.6779 70.0032 25.9625 70.0032 26.2498C70.0032 26.5372 69.9464 26.8218 69.8362 27.0871C69.726 27.3525 69.5645 27.5936 69.3609 27.7964L27.7981 69.3592C27.3715 69.7868 26.8115 70.0001 26.2515 70.0001C25.6915 70.0001 25.1326 69.7868 24.705 69.3592L18.8599 63.5152C18.4498 63.105 18.2194 62.5487 18.2194 61.9687C18.2194 61.3886 18.4498 60.8323 18.8599 60.4221C19.4712 59.814 19.9559 59.0908 20.286 58.2942C20.616 57.4976 20.7849 56.6435 20.7827 55.7813C20.7827 52.162 17.8394 49.2187 14.2202 49.2187C13.3582 49.2163 12.5042 49.3849 11.7078 49.7148C10.9114 50.0447 10.1883 50.5292 9.58048 51.1405C9.17026 51.5506 8.61395 51.7809 8.0339 51.7809C7.45385 51.7809 6.89755 51.5506 6.48733 51.1405ZM30.1737 22.3276L28.439 20.5929L5.2831 43.7499L8.18703 46.6539C9.97507 45.4676 12.0745 44.8378 14.2202 44.8437C20.2512 44.8437 25.1578 49.7503 25.1578 55.7813C25.1632 57.9274 24.5329 60.0271 23.3465 61.8155L26.2515 64.7195L49.4086 41.5624L47.6739 39.8277C47.4649 39.6259 47.2983 39.3846 47.1836 39.1177C47.069 38.8508 47.0086 38.5637 47.0061 38.2733C47.0036 37.9828 47.0589 37.6948 47.1689 37.4259C47.2789 37.1571 47.4414 36.9129 47.6467 36.7075C47.8521 36.5021 48.0964 36.3396 48.3652 36.2297C48.6341 36.1197 48.9221 36.0643 49.2126 36.0668C49.503 36.0694 49.7901 36.1297 50.0569 36.2444C50.3238 36.359 50.5652 36.5257 50.767 36.7346L52.5017 38.4693L64.7201 26.2498L61.8161 23.3459C60.0281 24.5321 57.9287 25.162 55.783 25.1561C49.752 25.1561 44.8454 20.2495 44.8454 14.2185C44.84 12.0723 45.4703 9.97266 46.6567 8.18424L43.7516 5.28031L31.5322 17.4998L33.2669 19.2345C33.677 19.6447 33.9074 20.201 33.9074 20.781C33.9074 21.3611 33.677 21.9174 33.2669 22.3276C32.8403 22.7553 32.2803 22.9686 31.7203 22.9686C31.1603 22.9686 30.6003 22.7553 30.1737 22.3276ZM38.2828 29.531C37.7228 29.531 37.1628 29.3177 36.7363 28.8901L34.5487 26.7026C34.3398 26.5008 34.1732 26.2594 34.0585 25.9925C33.9439 25.7256 33.8835 25.4386 33.881 25.1481C33.8785 24.8577 33.9338 24.5696 34.0438 24.3008C34.1538 24.0319 34.3162 23.7877 34.5216 23.5823C34.727 23.3769 34.9713 23.2145 35.2401 23.1045C35.5089 22.9945 35.797 22.9391 36.0874 22.9417C36.3779 22.9442 36.6649 23.0045 36.9318 23.1192C37.1987 23.2338 37.4401 23.4005 37.6419 23.6094L39.8294 25.7969C40.2395 26.2071 40.4699 26.7635 40.4699 27.3435C40.4699 27.9236 40.2395 28.4799 39.8294 28.8901C39.4028 29.3177 38.8428 29.531 38.2828 29.531ZM43.2988 35.4526L41.1113 33.2651C40.9024 33.0633 40.7357 32.8219 40.6211 32.555C40.5064 32.2882 40.4461 32.0011 40.4435 31.7107C40.441 31.4202 40.4964 31.1322 40.6064 30.8633C40.7164 30.5945 40.8788 30.3502 41.0842 30.1448C41.2896 29.9395 41.5338 29.777 41.8026 29.667C42.0715 29.557 42.3595 29.5017 42.65 29.5042C42.9404 29.5067 43.2275 29.5671 43.4944 29.6817C43.7613 29.7964 44.0026 29.963 44.2044 30.172L46.3919 32.3595C46.802 32.7697 47.0324 33.326 47.0324 33.906C47.0324 34.4861 46.802 35.0424 46.3919 35.4526C45.9654 35.8803 45.4054 36.0936 44.8454 36.0936C44.2854 36.0936 43.7254 35.8803 43.2988 35.4526Z"
          fill="#200E32"/>
</svg>
