<svg width="74" height="60" viewBox="0 0 74 60" fill="none" xmlns="http://www.w3.org/2000/svg">
    <rect x="52" y="11" width="18" height="20" rx="5" fill="#F8991D"/>
    <rect x="3" y="3" width="11" height="10" rx="5" fill="#0662BA"/>
    <path d="M5.96368 17.4893V24.9912C5.96368 25.6544 6.21961 26.2904 6.67518 26.7594C7.13074 27.2283 7.74861 27.4918 8.39287 27.4918C9.03713 27.4918 9.65501 27.2283 10.1106 26.7594C10.5661 26.2904 10.8221 25.6544 10.8221 24.9912V17.4893C10.8331 17.3645 10.8331 17.2389 10.8221 17.1142C12.7858 16.5325 14.4794 15.2404 15.5912 13.4754C16.7029 11.7105 17.158 9.59162 16.8727 7.50872C16.5874 5.42582 15.5809 3.51907 14.0384 2.13941C12.496 0.759745 10.5213 0 8.47789 0C6.43449 0 4.45983 0.759745 2.91735 2.13941C1.37487 3.51907 0.368359 5.42582 0.0830594 7.50872C-0.202241 9.59162 0.252869 11.7105 1.36463 13.4754C2.47639 15.2404 4.16999 16.5325 6.13373 17.1142C6.0646 17.2328 6.00761 17.3585 5.96368 17.4893ZM4.74909 8.73704C4.74909 7.74223 5.13298 6.78816 5.81633 6.08472C6.49967 5.38128 7.42648 4.9861 8.39287 4.9861C9.35926 4.9861 10.2861 5.38128 10.9694 6.08472C11.6528 6.78816 12.0367 7.74223 12.0367 8.73704C12.0367 9.73517 11.6515 10.6924 10.9659 11.3982C10.2802 12.104 9.35034 12.5005 8.38073 12.5005C7.41111 12.5005 6.48121 12.104 5.79559 11.3982C5.10997 10.6924 4.72479 9.73517 4.72479 8.73704H4.74909ZM56.9767 54.9987H42.4015C41.113 54.9987 39.8773 54.4718 38.9661 53.5339C38.055 52.596 37.5432 51.3239 37.5432 49.9975V42.4956C37.5432 39.8427 36.5194 37.2986 34.6972 35.4227C32.8749 33.5469 30.4034 32.493 27.8264 32.493H8.39287C7.74861 32.493 7.13074 32.7565 6.67518 33.2255C6.21961 33.6944 5.96368 34.3305 5.96368 34.9937C5.96368 35.6569 6.21961 36.2929 6.67518 36.7619C7.13074 37.2309 7.74861 37.4943 8.39287 37.4943H27.8264C29.1149 37.4943 30.3507 38.0212 31.2618 38.9592C32.1729 39.8971 32.6848 41.1692 32.6848 42.4956V49.9975C32.6848 52.6503 33.7085 55.1945 35.5308 57.0703C37.353 58.9462 39.8245 60 42.4015 60H56.9767C57.6209 60 58.2388 59.7365 58.6944 59.2676C59.1499 58.7986 59.4059 58.1626 59.4059 57.4994C59.4059 56.8362 59.1499 56.2001 58.6944 55.7312C58.2388 55.2622 57.6209 54.9987 56.9767 54.9987Z"
          fill="#200E32"/>
    <path fill-rule="evenodd" clip-rule="evenodd"
          d="M72.0535 14.3209C73.3217 16.424 73.9956 18.8476 74 21.3211C73.9932 24.1942 73.0885 26.9892 71.4189 29.2951C69.7493 31.601 67.4029 33.2961 64.7249 34.131C64.7418 34.3218 64.7418 34.5138 64.7249 34.7046V46.1761C64.7249 47.1903 64.3325 48.1629 63.6339 48.88C62.9354 49.5971 61.9879 50 61 50C60.0121 50 59.0646 49.5971 58.3661 48.88C57.6675 48.1629 57.2751 47.1903 57.2751 46.1761V34.7046C57.2576 34.5138 57.2576 34.3218 57.2751 34.131C54.9666 33.4222 52.8954 32.0689 51.2928 30.2219C49.6901 28.3749 48.619 26.107 48.199 23.6714C47.779 21.2358 48.0267 18.7283 48.9144 16.4287C49.8021 14.1292 51.2948 12.1282 53.226 10.6491C55.1572 9.16994 57.4509 8.27087 59.8509 8.05224C62.251 7.83361 64.663 8.30402 66.8178 9.41095C68.9725 10.5179 70.7852 12.2178 72.0535 14.3209ZM61 30C65.4183 30 69 26.1944 69 21.5C69 16.8056 65.4183 13 61 13C56.5817 13 53 16.8056 53 21.5C53 26.1944 56.5817 30 61 30Z"
          fill="#200E32"/>
</svg>
